<?xml version="1.0" encoding="UTF-8" standalone="no"?>
<!DOCTYPE svg PUBLIC "-//W3C//DTD SVG 1.1//EN"
 "http://www.w3.org/Graphics/SVG/1.1/DTD/svg11.dtd">
<!-- Generated by graphviz version 2.38.0 (20140413.2041)
 -->
<!-- Title: %3 Pages: 1 -->
<svg width="847pt" height="569pt"
 viewBox="0.00 0.00 847.00 569.00" xmlns="http://www.w3.org/2000/svg" xmlns:xlink="http://www.w3.org/1999/xlink">
<g id="graph0" class="graph" transform="scale(1 1) rotate(0) translate(4 542)">
<title>%3</title>
<polygon fill="white" stroke="none" points="-4,27 -4,-542 843,-542 843,27 -4,27"/>
<text text-anchor="middle" x="419.5" y="15.2" font-family="Times,serif" font-size="14.00">Um exemplo de Grafo</text>
<g id="clust1" class="cluster"><title>cluster_AllTheThings</title>
<polygon fill="none" stroke="black" points="-0.261883,0.359112 -0.261883,-537.641 838.738,-537.641 838.738,0.359112 -0.261883,0.359112"/>
<text text-anchor="middle" x="419.238" y="-522.441" font-family="Times,serif" font-size="14.00">Isto é um subgrafo com tudo</text>
</g>
<g id="clust2" class="cluster"><title>cluster_WildThings</title>
<polygon fill="none" stroke="black" points="559.476,-283.782 559.476,-476.782 830.476,-476.782 830.476,-283.782 559.476,-283.782"/>
<text text-anchor="middle" x="694.976" y="-461.582" font-family="Times,serif" font-size="14.00">Exemplo de Wild&#39;s e Ligas</text>
</g>
<g id="clust3" class="cluster"><title>cluster_ThePeople</title>
<polygon fill="none" stroke="black" points="112.264,-203.971 112.264,-412.971 361.264,-412.971 361.264,-203.971 112.264,-203.971"/>
<text text-anchor="middle" x="236.764" y="-397.771" font-family="Times,serif" font-size="14.00">The People</text>
</g>
<!-- W_Google -->
<g id="node1" class="node"><title>W_Google</title>
<g id="a_node1"><a xlink:href="http://www.google.com" xlink:title="Google">
<ellipse fill="none" stroke="black" cx="779.714" cy="-334.423" rx="42.7926" ry="42.7926"/>
<text text-anchor="middle" x="779.714" y="-330.723" font-family="Times,serif" font-size="14.00" fill="blue">Google</text>
</a>
</g>
</g>
<!-- W_Museu -->
<g id="node2" class="node"><title>W_Museu</title>
<g id="a_node2"><a xlink:href="http://www.museu-emigrantes.org" xlink:title="Museu\nEmigrantes">
<ellipse fill="none" stroke="black" cx="637.714" cy="-375.423" rx="70.922" ry="70.922"/>
<text text-anchor="middle" x="637.714" y="-379.223" font-family="Times,serif" font-size="14.00" fill="blue">Museu</text>
<text text-anchor="middle" x="637.714" y="-364.223" font-family="Times,serif" font-size="14.00" fill="blue">Emigrantes</text>
</a>
</g>
</g>
<!-- W_Google&#45;&gt;W_Museu -->
<g id="edge1" class="edge"><title>W_Google&#45;&gt;W_Museu</title>
<path fill="none" stroke="black" d="M738.26,-346.392C730.986,-348.492 723.207,-350.738 715.319,-353.016"/>
<polygon fill="black" stroke="black" points="714.306,-349.665 705.669,-355.802 716.247,-356.391 714.306,-349.665"/>
<text text-anchor="middle" x="737.54" y="-338.504" font-family="Times,serif" font-size="14.00">busca</text>
</g>
<!-- P_Kiko -->
<g id="node3" class="node"><title>P_Kiko</title>
<g id="a_node3"><a xlink:href="https://i.imgur.com/ICrq1Ke.png" xlink:title="{Kiko|a78416}">
<path fill="none" stroke="black" stroke-width="4" d="M132.608,-233.263C132.608,-233.263 178.608,-233.263 178.608,-233.263 184.608,-233.263 190.608,-239.263 190.608,-245.263 190.608,-245.263 190.608,-267.263 190.608,-267.263 190.608,-273.263 184.608,-279.263 178.608,-279.263 178.608,-279.263 132.608,-279.263 132.608,-279.263 126.608,-279.263 120.608,-273.263 120.608,-267.263 120.608,-267.263 120.608,-245.263 120.608,-245.263 120.608,-239.263 126.608,-233.263 132.608,-233.263"/>
<text text-anchor="middle" x="155.608" y="-264.063" font-family="Times,serif" font-size="14.00" fill="blue">Kiko</text>
<polyline fill="none" stroke="black" stroke-width="4" points="120.608,-256.263 190.608,-256.263 "/>
<text text-anchor="middle" x="155.608" y="-241.063" font-family="Times,serif" font-size="14.00" fill="blue">a78416</text>
</a>
</g>
</g>
<!-- O_nfstuk -->
<g id="node6" class="node"><title>O_nfstuk</title>
<g id="a_node6"><a xlink:href="https://i.imgur.com/1KaG8KO.jpg" xlink:title="Need for Speed\nTuktuk Edition">
<ellipse fill="none" stroke="black" cx="485.6" cy="-134.19" rx="90.5189" ry="90.5189"/>
<ellipse fill="none" stroke="black" cx="485.6" cy="-134.19" rx="94.5193" ry="94.5193"/>
<text text-anchor="middle" x="485.6" y="-137.99" font-family="Times,serif" font-size="14.00" fill="blue">Need for Speed</text>
<text text-anchor="middle" x="485.6" y="-122.99" font-family="Times,serif" font-size="14.00" fill="blue">Tuktuk Edition</text>
</a>
</g>
</g>
<!-- P_Kiko&#45;&gt;O_nfstuk -->
<g id="edge3" class="edge"><title>P_Kiko&#45;&gt;O_nfstuk</title>
<path fill="none" stroke="black" stroke-width="2" d="M190.611,-243.314C237.013,-226.149 320.77,-195.165 387.211,-170.587"/>
<polygon fill="black" stroke="black" stroke-width="2" points="388.717,-173.762 396.881,-167.01 386.288,-167.197 388.717,-173.762"/>
<text text-anchor="middle" x="277.911" y="-210.751" font-family="Times,serif" font-size="14.00">fez</text>
</g>
<!-- O_PL -->
<g id="node7" class="node"><title>O_PL</title>
<g id="a_node7"><a xlink:title="Processamento\nLinguagens">
<ellipse fill="none" stroke="black" cx="141.062" cy="-100.484" rx="89.1869" ry="89.1869"/>
<ellipse fill="none" stroke="black" cx="141.062" cy="-100.484" rx="93.191" ry="93.191"/>
<text text-anchor="middle" x="141.062" y="-104.284" font-family="Times,serif" font-size="14.00">Processamento</text>
<text text-anchor="middle" x="141.062" y="-89.284" font-family="Times,serif" font-size="14.00">Linguagens</text>
</a>
</g>
</g>
<!-- P_Kiko&#45;&gt;O_PL -->
<g id="edge2" class="edge"><title>P_Kiko&#45;&gt;O_PL</title>
<path fill="none" stroke="black" stroke-width="2" d="M153.431,-232.941C152.642,-224.493 151.692,-214.324 150.674,-203.423"/>
<polygon fill="black" stroke="black" stroke-width="2" points="154.137,-202.864 149.723,-193.233 147.168,-203.515 154.137,-202.864"/>
<text text-anchor="middle" x="141.052" y="-206.982" font-family="Times,serif" font-size="14.00">fez</text>
</g>
<!-- E_Xadrez -->
<g id="node8" class="node"><title>E_Xadrez</title>
<g id="a_node8"><a xlink:href="https://lichess.org/" xlink:title="Torneio de\nXadrez">
<polygon fill="none" stroke="black" points="100.157,-392.669 8.15716,-392.669 8.15716,-300.669 100.157,-300.669 100.157,-392.669"/>
<polyline fill="none" stroke="black" points="20.1572,-392.669 8.15716,-380.669 "/>
<polyline fill="none" stroke="black" points="8.15716,-312.669 20.1572,-300.669 "/>
<polyline fill="none" stroke="black" points="88.1572,-300.669 100.157,-312.669 "/>
<polyline fill="none" stroke="black" points="100.157,-380.669 88.1572,-392.669 "/>
<text text-anchor="middle" x="54.1572" y="-350.469" font-family="Times,serif" font-size="14.00" fill="blue">Torneio de</text>
<text text-anchor="middle" x="54.1572" y="-335.469" font-family="Times,serif" font-size="14.00" fill="blue">Xadrez</text>
</a>
</g>
</g>
<!-- P_Kiko&#45;&gt;E_Xadrez -->
<g id="edge4" class="edge"><title>P_Kiko&#45;&gt;E_Xadrez</title>
<path fill="none" stroke="black" stroke-dasharray="5,2" d="M129.745,-279.31C123.053,-285.274 115.593,-291.921 108.04,-298.652"/>
<polygon fill="black" stroke="black" points="105.618,-296.123 100.48,-305.389 110.275,-301.349 105.618,-296.123"/>
<text text-anchor="middle" x="81.8928" y="-277.781" font-family="Times,serif" font-size="14.00">participou</text>
</g>
<!-- P_Vitor -->
<g id="node4" class="node"><title>P_Vitor</title>
<g id="a_node4"><a xlink:title="Vitor|Peixoto">
<path fill="none" stroke="black" stroke-width="4" d="M224.866,-248.784C224.866,-248.784 322.866,-248.784 322.866,-248.784 328.866,-248.784 334.866,-254.784 334.866,-260.784 334.866,-260.784 334.866,-272.784 334.866,-272.784 334.866,-278.784 328.866,-284.784 322.866,-284.784 322.866,-284.784 224.866,-284.784 224.866,-284.784 218.866,-284.784 212.866,-278.784 212.866,-272.784 212.866,-272.784 212.866,-260.784 212.866,-260.784 212.866,-254.784 218.866,-248.784 224.866,-248.784"/>
<text text-anchor="middle" x="239.366" y="-263.084" font-family="Times,serif" font-size="14.00">Vitor</text>
<polyline fill="none" stroke="black" stroke-width="4" points="265.866,-248.784 265.866,-284.784 "/>
<text text-anchor="middle" x="300.366" y="-263.084" font-family="Times,serif" font-size="14.00">Peixoto</text>
</a>
</g>
</g>
<!-- P_Vitor&#45;&gt;O_nfstuk -->
<g id="edge5" class="edge"><title>P_Vitor&#45;&gt;O_nfstuk</title>
<path fill="none" stroke="black" stroke-width="2" d="M302.862,-248.626C327.19,-233.391 363.268,-210.798 396.955,-189.702"/>
<polygon fill="black" stroke="black" stroke-width="2" points="398.841,-192.651 405.459,-184.377 395.126,-186.718 398.841,-192.651"/>
</g>
<!-- P_Vitor&#45;&gt;O_PL -->
<g id="edge6" class="edge"><title>P_Vitor&#45;&gt;O_PL</title>
<path fill="none" stroke="black" stroke-width="2" d="M259.4,-248.671C246.241,-232.192 225.846,-206.653 205.672,-181.39"/>
<polygon fill="black" stroke="black" stroke-width="2" points="208.401,-179.199 199.426,-173.569 202.932,-183.568 208.401,-179.199"/>
</g>
<!-- E_paredes -->
<g id="node9" class="node"><title>E_paredes</title>
<g id="a_node9"><a xlink:href="https://www.paredesdecoura.com/" xlink:title="Paredes\nde Coura">
<polygon fill="none" stroke="black" points="493.732,-493.049 411.732,-493.049 411.732,-411.049 493.732,-411.049 493.732,-493.049"/>
<polyline fill="none" stroke="black" points="423.732,-493.049 411.732,-481.049 "/>
<polyline fill="none" stroke="black" points="411.732,-423.049 423.732,-411.049 "/>
<polyline fill="none" stroke="black" points="481.732,-411.049 493.732,-423.049 "/>
<polyline fill="none" stroke="black" points="493.732,-481.049 481.732,-493.049 "/>
<text text-anchor="middle" x="452.732" y="-455.849" font-family="Times,serif" font-size="14.00" fill="blue">Paredes</text>
<text text-anchor="middle" x="452.732" y="-440.849" font-family="Times,serif" font-size="14.00" fill="blue">de Coura</text>
</a>
</g>
</g>
<!-- P_Vitor&#45;&gt;E_paredes -->
<g id="edge7" class="edge"><title>P_Vitor&#45;&gt;E_paredes</title>
<path fill="none" stroke="black" stroke-dasharray="5,2" d="M291.342,-284.886C317.548,-312.03 367.954,-364.239 405.493,-403.121"/>
<polygon fill="black" stroke="black" points="403.355,-405.945 412.818,-410.708 408.391,-401.083 403.355,-405.945"/>
</g>
<!-- P_Raul -->
<g id="node5" class="node"><title>P_Raul</title>
<g id="a_node5"><a xlink:title="Raul">
<path fill="none" stroke="black" stroke-width="4" d="M212.967,-311.754C212.967,-311.754 242.967,-311.754 242.967,-311.754 248.967,-311.754 254.967,-317.754 254.967,-323.754 254.967,-323.754 254.967,-335.754 254.967,-335.754 254.967,-341.754 248.967,-347.754 242.967,-347.754 242.967,-347.754 212.967,-347.754 212.967,-347.754 206.967,-347.754 200.967,-341.754 200.967,-335.754 200.967,-335.754 200.967,-323.754 200.967,-323.754 200.967,-317.754 206.967,-311.754 212.967,-311.754"/>
<text text-anchor="middle" x="227.967" y="-326.054" font-family="Times,serif" font-size="14.00">Raul</text>
</a>
</g>
</g>
<!-- P_Raul&#45;&gt;O_PL -->
<g id="edge8" class="edge"><title>P_Raul&#45;&gt;O_PL</title>
<path fill="none" stroke="black" stroke-width="2" d="M221.002,-311.379C211.546,-286.433 193.954,-240.021 177.675,-197.075"/>
<polygon fill="black" stroke="black" stroke-width="2" points="180.934,-195.798 174.117,-187.687 174.388,-198.279 180.934,-195.798"/>
</g>
<!-- P_Raul&#45;&gt;E_paredes -->
<g id="edge10" class="edge"><title>P_Raul&#45;&gt;E_paredes</title>
<path fill="none" stroke="black" stroke-dasharray="5,2" d="M255.079,-344.506C291.53,-364.338 357.014,-399.968 402.573,-424.758"/>
<polygon fill="black" stroke="black" points="400.948,-427.858 411.405,-429.563 404.294,-421.709 400.948,-427.858"/>
</g>
<!-- E_pokemon -->
<g id="node10" class="node"><title>E_pokemon</title>
<g id="a_node10"><a xlink:title="Gotta catch them all">
<polygon fill="none" stroke="black" points="269.566,-506.553 187.566,-506.553 187.566,-424.553 269.566,-424.553 269.566,-506.553"/>
<polyline fill="none" stroke="black" points="199.566,-506.553 187.566,-494.553 "/>
<polyline fill="none" stroke="black" points="187.566,-436.553 199.566,-424.553 "/>
<polyline fill="none" stroke="black" points="257.566,-424.553 269.566,-436.553 "/>
<polyline fill="none" stroke="black" points="269.566,-494.553 257.566,-506.553 "/>
<text text-anchor="middle" x="228.566" y="-461.853" font-family="Times,serif" font-size="14.00">Pokemon</text>
</a>
</g>
</g>
<!-- P_Raul&#45;&gt;E_pokemon -->
<g id="edge9" class="edge"><title>P_Raul&#45;&gt;E_pokemon</title>
<path fill="none" stroke="black" stroke-dasharray="5,2" d="M228.047,-347.787C228.122,-364.756 228.237,-390.986 228.34,-414.387"/>
<polygon fill="black" stroke="black" points="224.841,-414.567 228.385,-424.551 231.841,-414.536 224.841,-414.567"/>
</g>
</g>
</svg>
