<?xml version="1.0" encoding="UTF-8" standalone="no"?>
<!DOCTYPE svg PUBLIC "-//W3C//DTD SVG 1.1//EN"
 "http://www.w3.org/Graphics/SVG/1.1/DTD/svg11.dtd">
<!-- Generated by graphviz version 2.38.0 (20140413.2041)
 -->
<!-- Title: %3 Pages: 1 -->
<svg width="958pt" height="443pt"
 viewBox="0.00 0.00 958.00 442.81" xmlns="http://www.w3.org/2000/svg" xmlns:xlink="http://www.w3.org/1999/xlink">
<g id="graph0" class="graph" transform="scale(1 1) rotate(0) translate(4 438.812)">
<title>%3</title>
<polygon fill="white" stroke="none" points="-4,4 -4,-438.812 954,-438.812 954,4 -4,4"/>
<text text-anchor="middle" x="475" y="-7.8" font-family="Times,serif" font-size="14.00">Um exemplo de Grafo</text>
<g id="clust1" class="cluster"><title>cluster_AllTheThings</title>
<polygon fill="none" stroke="black" points="8,-31 8,-426.812 942,-426.812 942,-31 8,-31"/>
<text text-anchor="middle" x="475" y="-411.612" font-family="Times,serif" font-size="14.00">Isto é um subgrafo com tudo</text>
</g>
<g id="clust2" class="cluster"><title>cluster_WildThings</title>
<polygon fill="none" stroke="black" points="728,-54.799 728,-395.812 934,-395.812 934,-54.799 728,-54.799"/>
<text text-anchor="middle" x="831" y="-380.612" font-family="Times,serif" font-size="14.00">Exemplo de Wild&#39;s e Ligas</text>
</g>
<g id="clust3" class="cluster"><title>cluster_ThePeople</title>
<polygon fill="none" stroke="black" points="270,-290.416 270,-376.416 568,-376.416 568,-290.416 270,-290.416"/>
<text text-anchor="middle" x="419" y="-361.216" font-family="Times,serif" font-size="14.00">The People</text>
</g>
<!-- W_Google -->
<g id="node1" class="node"><title>W_Google</title>
<g id="a_node1"><a xlink:href="http://www.google.com" xlink:title="Google">
<ellipse fill="none" stroke="black" cx="832" cy="-321.916" rx="42.7926" ry="42.7926"/>
<text text-anchor="middle" x="832" y="-318.216" font-family="Times,serif" font-size="14.00" fill="blue">Google</text>
</a>
</g>
</g>
<!-- W_Museu -->
<g id="node2" class="node"><title>W_Museu</title>
<g id="a_node2"><a xlink:href="http://www.museu-emigrantes.org" xlink:title="Museu\nEmigrantes">
<ellipse fill="none" stroke="black" cx="832" cy="-133.51" rx="70.922" ry="70.922"/>
<text text-anchor="middle" x="832" y="-137.31" font-family="Times,serif" font-size="14.00" fill="blue">Museu</text>
<text text-anchor="middle" x="832" y="-122.31" font-family="Times,serif" font-size="14.00" fill="blue">Emigrantes</text>
</a>
</g>
</g>
<!-- W_Google&#45;&gt;W_Museu -->
<g id="edge1" class="edge"><title>W_Google&#45;&gt;W_Museu</title>
<path fill="none" stroke="black" d="M832,-278.617C832,-259.614 832,-236.539 832,-214.474"/>
<polygon fill="black" stroke="black" points="835.5,-214.426 832,-204.426 828.5,-214.426 835.5,-214.426"/>
<text text-anchor="middle" x="853.5" y="-249.819" font-family="Times,serif" font-size="14.00">busca</text>
</g>
<!-- P_Kiko -->
<g id="node3" class="node"><title>P_Kiko</title>
<g id="a_node3"><a xlink:href="https://i.imgur.com/ICrq1Ke.png" xlink:title="{Kiko|a78416}">
<path fill="none" stroke="black" stroke-width="4" d="M290,-298.916C290,-298.916 336,-298.916 336,-298.916 342,-298.916 348,-304.916 348,-310.916 348,-310.916 348,-332.916 348,-332.916 348,-338.916 342,-344.916 336,-344.916 336,-344.916 290,-344.916 290,-344.916 284,-344.916 278,-338.916 278,-332.916 278,-332.916 278,-310.916 278,-310.916 278,-304.916 284,-298.916 290,-298.916"/>
<text text-anchor="middle" x="313" y="-329.716" font-family="Times,serif" font-size="14.00" fill="blue">Kiko</text>
<polyline fill="none" stroke="black" stroke-width="4" points="278,-321.916 348,-321.916 "/>
<text text-anchor="middle" x="313" y="-306.716" font-family="Times,serif" font-size="14.00" fill="blue">a78416</text>
</a>
</g>
</g>
<!-- O_nfstuk -->
<g id="node6" class="node"><title>O_nfstuk</title>
<g id="a_node6"><a xlink:href="https://i.imgur.com/1KaG8KO.jpg" xlink:title="Need for Speed\nTuktuk Edition">
<ellipse fill="none" stroke="black" cx="221" cy="-133.51" rx="90.5189" ry="90.5189"/>
<ellipse fill="none" stroke="black" cx="221" cy="-133.51" rx="94.5193" ry="94.5193"/>
<text text-anchor="middle" x="221" y="-137.31" font-family="Times,serif" font-size="14.00" fill="blue">Need for Speed</text>
<text text-anchor="middle" x="221" y="-122.31" font-family="Times,serif" font-size="14.00" fill="blue">Tuktuk Edition</text>
</a>
</g>
</g>
<!-- P_Kiko&#45;&gt;O_nfstuk -->
<g id="edge3" class="edge"><title>P_Kiko&#45;&gt;O_nfstuk</title>
<path fill="none" stroke="black" stroke-width="2" d="M302.085,-298.8C293.233,-280.865 280.113,-254.282 266.994,-227.701"/>
<polygon fill="black" stroke="black" stroke-width="2" points="270.116,-226.118 262.552,-218.699 263.839,-229.216 270.116,-226.118"/>
<text text-anchor="middle" x="295" y="-249.819" font-family="Times,serif" font-size="14.00">fez</text>
</g>
<!-- O_PL -->
<g id="node7" class="node"><title>O_PL</title>
<g id="a_node7"><a xlink:title="Processamento\nLinguagens">
<ellipse fill="none" stroke="black" cx="427" cy="-133.51" rx="89.1869" ry="89.1869"/>
<ellipse fill="none" stroke="black" cx="427" cy="-133.51" rx="93.191" ry="93.191"/>
<text text-anchor="middle" x="427" y="-137.31" font-family="Times,serif" font-size="14.00">Processamento</text>
<text text-anchor="middle" x="427" y="-122.31" font-family="Times,serif" font-size="14.00">Linguagens</text>
</a>
</g>
</g>
<!-- P_Kiko&#45;&gt;O_PL -->
<g id="edge2" class="edge"><title>P_Kiko&#45;&gt;O_PL</title>
<path fill="none" stroke="black" stroke-width="2" d="M326.525,-298.8C338.231,-279.66 355.959,-250.672 373.281,-222.348"/>
<polygon fill="black" stroke="black" stroke-width="2" points="376.405,-223.947 378.637,-213.59 370.434,-220.295 376.405,-223.947"/>
<text text-anchor="middle" x="368" y="-249.819" font-family="Times,serif" font-size="14.00">fez</text>
</g>
<!-- E_Xadrez -->
<g id="node8" class="node"><title>E_Xadrez</title>
<g id="a_node8"><a xlink:href="https://lichess.org/" xlink:title="Torneio de\nXadrez">
<polygon fill="none" stroke="black" points="108,-179.51 16,-179.51 16,-87.5097 108,-87.5097 108,-179.51"/>
<polyline fill="none" stroke="black" points="28,-179.51 16,-167.51 "/>
<polyline fill="none" stroke="black" points="16,-99.5097 28,-87.5097 "/>
<polyline fill="none" stroke="black" points="96,-87.5097 108,-99.5097 "/>
<polyline fill="none" stroke="black" points="108,-167.51 96,-179.51 "/>
<text text-anchor="middle" x="62" y="-137.31" font-family="Times,serif" font-size="14.00" fill="blue">Torneio de</text>
<text text-anchor="middle" x="62" y="-122.31" font-family="Times,serif" font-size="14.00" fill="blue">Xadrez</text>
</a>
</g>
</g>
<!-- P_Kiko&#45;&gt;E_Xadrez -->
<g id="edge4" class="edge"><title>P_Kiko&#45;&gt;E_Xadrez</title>
<path fill="none" stroke="black" stroke-dasharray="5,2" d="M277.869,-311.251C235.586,-298.171 164.375,-271.352 117,-228.019 105.03,-217.07 94.8881,-202.904 86.6999,-188.924"/>
<polygon fill="black" stroke="black" points="89.5348,-186.822 81.6015,-179.8 83.4241,-190.237 89.5348,-186.822"/>
<text text-anchor="middle" x="197" y="-249.819" font-family="Times,serif" font-size="14.00">participou</text>
</g>
<!-- P_Vitor -->
<g id="node4" class="node"><title>P_Vitor</title>
<g id="a_node4"><a xlink:title="Vitor|Peixoto">
<path fill="none" stroke="black" stroke-width="4" d="M378,-303.916C378,-303.916 476,-303.916 476,-303.916 482,-303.916 488,-309.916 488,-315.916 488,-315.916 488,-327.916 488,-327.916 488,-333.916 482,-339.916 476,-339.916 476,-339.916 378,-339.916 378,-339.916 372,-339.916 366,-333.916 366,-327.916 366,-327.916 366,-315.916 366,-315.916 366,-309.916 372,-303.916 378,-303.916"/>
<text text-anchor="middle" x="392.5" y="-318.216" font-family="Times,serif" font-size="14.00">Vitor</text>
<polyline fill="none" stroke="black" stroke-width="4" points="419,-303.916 419,-339.916 "/>
<text text-anchor="middle" x="453.5" y="-318.216" font-family="Times,serif" font-size="14.00">Peixoto</text>
</a>
</g>
</g>
<!-- P_Vitor&#45;&gt;O_nfstuk -->
<g id="edge5" class="edge"><title>P_Vitor&#45;&gt;O_nfstuk</title>
<path fill="none" stroke="black" stroke-width="2" d="M421.18,-303.86C414.525,-286.837 402.027,-261.102 383,-246.019 361.849,-229.253 348.468,-241.351 325,-228.019 314.774,-222.21 304.694,-215.251 295.072,-207.786"/>
<polygon fill="black" stroke="black" stroke-width="2" points="297.098,-204.925 287.104,-201.411 292.725,-210.391 297.098,-204.925"/>
</g>
<!-- P_Vitor&#45;&gt;O_PL -->
<g id="edge6" class="edge"><title>P_Vitor&#45;&gt;O_PL</title>
<path fill="none" stroke="black" stroke-width="2" d="M427,-303.713C427,-287.879 427,-262.99 427,-237.124"/>
<polygon fill="black" stroke="black" stroke-width="2" points="430.5,-236.791 427,-226.791 423.5,-236.791 430.5,-236.791"/>
</g>
<!-- E_paredes -->
<g id="node9" class="node"><title>E_paredes</title>
<g id="a_node9"><a xlink:href="https://www.paredesdecoura.com/" xlink:title="Paredes\nde Coura">
<polygon fill="none" stroke="black" points="620,-174.51 538,-174.51 538,-92.5097 620,-92.5097 620,-174.51"/>
<polyline fill="none" stroke="black" points="550,-174.51 538,-162.51 "/>
<polyline fill="none" stroke="black" points="538,-104.51 550,-92.5097 "/>
<polyline fill="none" stroke="black" points="608,-92.5097 620,-104.51 "/>
<polyline fill="none" stroke="black" points="620,-162.51 608,-174.51 "/>
<text text-anchor="middle" x="579" y="-137.31" font-family="Times,serif" font-size="14.00" fill="blue">Paredes</text>
<text text-anchor="middle" x="579" y="-122.31" font-family="Times,serif" font-size="14.00" fill="blue">de Coura</text>
</a>
</g>
</g>
<!-- P_Vitor&#45;&gt;E_paredes -->
<g id="edge7" class="edge"><title>P_Vitor&#45;&gt;E_paredes</title>
<path fill="none" stroke="black" stroke-dasharray="5,2" d="M450.177,-303.626C472.346,-286.267 505.751,-257.88 529,-228.019 539.49,-214.547 548.942,-198.562 556.731,-183.654"/>
<polygon fill="black" stroke="black" points="559.951,-185.043 561.36,-174.543 553.71,-181.872 559.951,-185.043"/>
</g>
<!-- P_Raul -->
<g id="node5" class="node"><title>P_Raul</title>
<g id="a_node5"><a xlink:title="Raul">
<path fill="none" stroke="black" stroke-width="4" d="M518,-303.916C518,-303.916 548,-303.916 548,-303.916 554,-303.916 560,-309.916 560,-315.916 560,-315.916 560,-327.916 560,-327.916 560,-333.916 554,-339.916 548,-339.916 548,-339.916 518,-339.916 518,-339.916 512,-339.916 506,-333.916 506,-327.916 506,-327.916 506,-315.916 506,-315.916 506,-309.916 512,-303.916 518,-303.916"/>
<text text-anchor="middle" x="533" y="-318.216" font-family="Times,serif" font-size="14.00">Raul</text>
</a>
</g>
</g>
<!-- P_Raul&#45;&gt;O_PL -->
<g id="edge8" class="edge"><title>P_Raul&#45;&gt;O_PL</title>
<path fill="none" stroke="black" stroke-width="2" d="M523.218,-303.713C512.675,-285.174 495.074,-254.221 477.787,-223.821"/>
<polygon fill="black" stroke="black" stroke-width="2" points="480.67,-221.81 472.684,-214.847 474.585,-225.27 480.67,-221.81"/>
</g>
<!-- P_Raul&#45;&gt;E_paredes -->
<g id="edge10" class="edge"><title>P_Raul&#45;&gt;E_paredes</title>
<path fill="none" stroke="black" stroke-dasharray="5,2" d="M537.245,-303.713C543.868,-276.876 556.91,-224.025 566.665,-184.495"/>
<polygon fill="black" stroke="black" points="570.07,-185.303 569.068,-174.756 563.274,-183.626 570.07,-185.303"/>
</g>
<!-- E_pokemon -->
<g id="node10" class="node"><title>E_pokemon</title>
<g id="a_node10"><a xlink:title="Gotta catch them all">
<polygon fill="none" stroke="black" points="720,-174.51 638,-174.51 638,-92.5097 720,-92.5097 720,-174.51"/>
<polyline fill="none" stroke="black" points="650,-174.51 638,-162.51 "/>
<polyline fill="none" stroke="black" points="638,-104.51 650,-92.5097 "/>
<polyline fill="none" stroke="black" points="708,-92.5097 720,-104.51 "/>
<polyline fill="none" stroke="black" points="720,-162.51 708,-174.51 "/>
<text text-anchor="middle" x="679" y="-129.81" font-family="Times,serif" font-size="14.00">Pokemon</text>
</a>
</g>
</g>
<!-- P_Raul&#45;&gt;E_pokemon -->
<g id="edge9" class="edge"><title>P_Raul&#45;&gt;E_pokemon</title>
<path fill="none" stroke="black" stroke-dasharray="5,2" d="M554.337,-303.69C575.135,-286.162 606.788,-257.455 629,-228.019 639.193,-214.511 648.512,-198.648 656.272,-183.862"/>
<polygon fill="black" stroke="black" points="659.456,-185.322 660.895,-174.825 653.224,-182.133 659.456,-185.322"/>
</g>
</g>
</svg>
